PathFileType  4	(X/Y/Z) C:\Users\antoi\Documents\MyRepositories\mobilecap\ResultsAnalysis
DataRate	CameraRate	NumFrames	NumMarkers	Units	OrigDataRate	OrigDataStartFrame	OrigNumFrames
100.0	100.0	4	51	mm	100.0	110	146
Frame#	Time	r_knee			r_shank_antsup			r_ankle			r_calc			r_5meta			r_toe			L_knee			L_shank_antsup			L_ankle			L_calc			L_5meta			L_toe			r_sh2			r_sh3			r_sh4			L_sh2			L_sh3			r_thigh1			r_thigh2			r_thigh3			r_thigh4			r_thigh5			L_thigh1			L_thigh2			L_thigh3			L_thigh4			r.ASIS			r.PSIS			L.ASIS			L.PSIS			C7			R_Shoulder			L_Shoulder			R_Sternum			L_Sternum			R_humerus			R_elbow_med			R_elbow_lat			R_forearm			R_wrist_radius			R_wrist_ulna			L_humerus			L_elbow_med			L_elbow_lat			L_forearm			L_wrist_radius			L_wrist_ulna			R_HJC			L_HJC			R_HJC_reg			L_HJC_reg			
		X1	Y1	Z1	X2	Y2	Z2	X3	Y3	Z3	X4	Y4	Z4	X5	Y5	Z5	X6	Y6	Z6	X7	Y7	Z7	X8	Y8	Z8	X9	Y9	Z9	X10	Y10	Z10	X11	Y11	Z11	X12	Y12	Z12	X13	Y13	Z13	X14	Y14	Z14	X15	Y15	Z15	X16	Y16	Z16	X17	Y17	Z17	X18	Y18	Z18	X19	Y19	Z19	X20	Y20	Z20	X21	Y21	Z21	X22	Y22	Z22	X23	Y23	Z23	X24	Y24	Z24	X25	Y25	Z25	X26	Y26	Z26	X27	Y27	Z27	X28	Y28	Z28	X29	Y29	Z29	X30	Y30	Z30	X31	Y31	Z31	X32	Y32	Z32	X33	Y33	Z33	X34	Y34	Z34	X35	Y35	Z35	X36	Y36	Z36	X37	Y37	Z37	X38	Y38	Z38	X39	Y39	Z39	X40	Y40	Z40	X41	Y41	Z41	X42	Y42	Z42	X43	Y43	Z43	X44	Y44	Z44	X45	Y45	Z45	X46	Y46	Z46	X47	Y47	Z47	X48	Y48	Z48	X49	Y49	Z49	X50	Y50	Z50	X51	Y51	Z51	

110	1.09000000	1228.06551	544.51467	-38.97968	1264.40306	472.69582	-27.96073	1295.98761	112.58755	-67.37277	1249.20283	57.31279	-122.18757	1443.23915	59.15965	-18.96437	1478.32584	96.26276	-70.58309	1013.03790	529.83359	-314.21130	1021.47913	405.14682	-317.11483	895.35530	99.23739	-291.83662	819.89613	57.11302	-260.09734	1047.93499	31.28644	-321.04871	1063.75062	57.12524	-253.26953	1285.97001	362.04378	-23.50597	1190.56232	458.37210	-16.96091	1203.12175	344.98977	-24.96336	938.39298	431.66695	-342.39058	912.74191	313.81769	-338.70388	1188.70312	860.70873	3.21904	1236.12172	763.00361	-13.99981	1195.72863	713.40085	13.31881	1086.42979	810.35649	3.85297	1141.32256	708.10461	-1.70748	1126.61720	844.87755	-345.99552	1118.25099	708.57389	-333.69620	1007.85433	851.86015	-351.56535	1008.27320	709.29031	-344.89520	1165.30517	1039.87102	-48.57268	972.83497	1088.58391	-119.99161	1162.96708	1033.35938	-307.32304	969.53098	1091.61135	-222.69653	1026.97978	1593.06355	-249.02714	1058.92702	1582.98695	-73.14278	1101.52844	1549.81898	-383.86093	1171.39602	1519.77691	-186.69036	1178.64383	1511.27091	-242.84402	968.34224	1339.10841	39.39715	941.64200	1240.62717	-31.71564	929.94858	1256.26375	51.22053	998.16248	1119.85546	107.91181	1049.36746	1017.40108	128.46692	1004.26949	1015.24163	130.01724	1179.27681	1317.31713	-486.49703	1160.52886	1203.46439	-444.35618	1194.20045	1227.58065	-502.86960	1337.17423	1127.05059	-500.43752	1418.41436	1073.43501	-478.32662	1398.10127	1047.41082	-501.39539	1076.12655	965.89830	-50.86743	1072.68466	962.90311	-281.18747	1089.75769	961.64193	-84.96083	1084.26502	966.67404	-255.63341	
111	1.10000000	1236.76618	541.17385	-38.45279	1276.24917	471.50535	-27.96160	1324.73901	112.31882	-65.33156	1279.55573	55.06035	-119.26519	1474.85536	65.23277	-19.25280	1507.63490	103.75152	-71.15976	1019.51624	528.81025	-314.36446	1026.29411	403.90279	-317.21198	895.82869	99.74179	-291.65151	820.03732	57.46856	-259.91963	1047.88931	31.23414	-321.17276	1063.82570	56.87652	-253.33275	1302.89486	361.92017	-22.97437	1203.23139	453.80628	-15.85799	1221.20782	341.01404	-23.56606	943.48751	431.62277	-342.21441	916.11014	314.06156	-338.66050	1199.67607	857.60919	2.26784	1245.44522	759.10679	-15.24596	1204.93829	710.25968	13.39140	1096.99585	808.56566	3.87224	1150.26372	705.12149	-1.48137	1135.73964	843.10003	-346.62364	1126.51356	706.93910	-334.09258	1016.90648	851.22259	-351.65362	1016.39665	708.34338	-344.88253	1177.61399	1037.98450	-49.21174	984.62893	1086.38659	-119.61755	1173.83997	1031.62009	-308.05709	980.83641	1089.56645	-222.18169	1037.58375	1591.57800	-246.45939	1069.85371	1580.31750	-70.71564	1111.94522	1549.88039	-381.39401	1182.32519	1518.11076	-184.83906	1189.46439	1510.01397	-240.99346	979.99351	1335.28635	40.01496	954.14511	1236.67881	-32.13069	941.67397	1252.33794	51.14604	1009.85462	1115.55467	107.09460	1061.06982	1012.99904	127.05882	1015.98360	1010.80690	128.49371	1193.14339	1319.78885	-485.89275	1176.40797	1205.21525	-444.86054	1209.86991	1230.49422	-502.98121	1355.51145	1133.67558	-499.89596	1437.96080	1082.22566	-477.26358	1418.58540	1055.77221	-500.60761	1088.53747	963.85228	-51.11058	1083.81980	961.02313	-281.40976	1101.95470	959.47750	-85.38101	1095.64024	964.77114	-256.09004	
112	1.11000000	1245.80542	538.07877	-37.73271	1288.09603	470.50468	-27.80771	1350.99641	112.46485	-63.56612	1307.42397	53.11667	-116.25272	1504.01207	71.95778	-20.18330	1534.12739	111.66475	-72.51478	1026.61897	527.65385	-314.49581	1031.62334	402.54199	-317.24422	896.41549	100.35674	-291.47526	820.19569	58.00192	-259.74276	1047.88437	31.15924	-321.29818	1063.99574	56.59323	-253.42012	1319.10354	362.00981	-22.41138	1215.94523	449.91411	-14.43002	1238.60177	337.75483	-21.86472	949.14994	431.55154	-342.04079	919.91856	314.34282	-338.63840	1210.89613	854.75241	1.29358	1255.18284	755.48346	-16.28507	1214.62063	707.46964	13.62712	1107.92090	806.87496	4.09216	1159.65601	702.41755	-1.00150	1145.21330	841.26891	-347.18525	1135.27609	705.25129	-334.54281	1026.37081	850.36516	-351.74950	1024.97307	707.30806	-344.88210	1190.00967	1036.05392	-49.81254	996.54688	1084.15890	-119.25442	1184.83758	1029.80521	-308.75397	992.30301	1087.44632	-221.68993	1048.22883	1590.04537	-243.79376	1080.85264	1577.57236	-68.21978	1122.33035	1549.83954	-378.86265	1193.30811	1516.38178	-182.94005	1200.32948	1508.68395	-239.08949	991.77299	1331.39427	40.75300	966.91881	1232.49665	-32.52697	953.56496	1248.33777	51.21046	1021.64768	1111.15178	106.38312	1072.83003	1008.47836	125.74201	1027.74391	1006.26943	127.04467	1206.70440	1322.11406	-485.15672	1191.99171	1206.89644	-445.16206	1225.19506	1233.30182	-502.91010	1373.33054	1140.11625	-499.17383	1456.87075	1090.75679	-475.99847	1438.41129	1063.93707	-499.62241	1101.03935	961.77067	-51.32939	1095.09360	959.06822	-281.60224	1114.21514	957.30846	-85.75750	1107.13937	962.78905	-256.50892	
113	1.12000000	1255.36956	535.33801	-36.91326	1300.06956	469.66932	-27.58417	1374.48060	112.73591	-62.07989	1332.39154	51.28322	-113.19388	1530.27013	78.68548	-21.69307	1557.50698	119.25325	-74.62913	1034.38140	526.38071	-314.60016	1037.46072	401.06794	-317.22249	897.11885	101.12394	-291.31967	820.39000	58.80774	-259.58109	1047.92345	31.04622	-321.41689	1064.24164	56.27573	-253.52211	1334.63076	362.18018	-21.88691	1228.78546	446.75648	-12.73898	1255.23608	335.18838	-19.91622	955.40639	431.46546	-341.88389	924.18655	314.68772	-338.64398	1222.44196	852.25644	0.36877	1265.49854	752.29146	-17.07704	1224.91597	705.07195	13.95815	1119.27486	805.34248	4.49325	1169.68585	700.12773	-0.35099	1155.05699	839.40630	-347.63799	1144.54161	703.51026	-335.00823	1036.24056	849.30792	-351.80682	1034.03248	706.18785	-344.87799	1202.46596	1034.15380	-50.34099	1008.56535	1081.96016	-118.91331	1195.97708	1027.93228	-309.38440	1003.91967	1085.29470	-221.24905	1058.92673	1588.50826	-241.03629	1091.91890	1574.78188	-65.65769	1132.68136	1549.73002	-376.27152	1204.32903	1514.63014	-180.99819	1211.25430	1507.32858	-237.13790	1003.69110	1327.46415	41.61972	979.85755	1228.22296	-32.82291	965.63663	1244.28661	51.42683	1033.55237	1106.67347	105.77837	1084.66110	1003.85935	124.51474	1039.55284	1001.65587	125.66716	1219.96267	1324.31524	-484.27499	1207.27011	1208.51495	-445.25819	1240.16070	1236.00946	-502.65681	1390.61919	1146.35954	-498.28129	1475.12172	1099.00165	-474.53248	1457.56385	1071.86680	-498.44950	1113.59839	959.72907	-51.49412	1106.51459	957.06418	-281.73677	1126.52163	955.19284	-86.05355	1118.76701	960.75883	-256.85906	
